<svg width="63" height="64" xmlns="http://www.w3.org/2000/svg" xmlns:xlink="http://www.w3.org/1999/xlink" xml:space="preserve" overflow="hidden"><g transform="translate(-1445 -1500)"><path d="M40.0778 38.6033C40.7735 37.1858 42.4141 34.0095 43.9169 32.3689 45.1363 30.9949 46.1008 29.4144 46.765 27.7016 47.4611 25.8857 47.8469 23.9657 47.9062 22.0218L47.9062 21.4594C47.9062 12.3985 40.5609 5.05312 31.5 5.05312 22.4391 5.05312 15.0938 12.3985 15.0938 21.4594L15.0938 22.0238C15.1535 23.9672 15.5395 25.8868 16.2356 27.7023 16.8999 29.415 17.8644 30.9955 19.0837 32.3695 20.5866 34.0036 22.2272 37.1877 22.9228 38.6039 23.1346 39.0303 23.5695 39.3001 24.0457 39.3002L38.955 39.3002C39.4312 39.2999 39.8663 39.0299 40.0778 38.6033ZM38.9156 37.987 24.0844 37.987C23.2378 36.265 21.607 33.1702 20.0675 31.4961 18.952 30.2408 18.0699 28.7962 17.4628 27.2304 16.8207 25.5586 16.4635 23.7908 16.4062 22.0008L16.4062 21.4817C16.4001 13.1457 23.1528 6.38294 31.4888 6.37678 39.8249 6.37062 46.5876 13.1234 46.5938 21.4594L46.5938 22.0034C46.5373 23.7913 46.1813 25.5571 45.5405 27.2272 44.9367 28.7888 44.0589 30.23 42.9483 31.4829 41.3871 33.1866 39.7576 36.2782 38.9156 37.987Z" fill="#83CBEB" transform="matrix(1 0 0 1.01587 1445 1500)"/><path d="M38.8224 43.2738 24.3849 43.2738C24.0225 43.2738 23.7287 43.5676 23.7287 43.93 23.7287 44.2925 24.0225 44.5863 24.3849 44.5863L38.8224 44.5863C39.1849 44.5863 39.4787 44.2925 39.4787 43.93 39.4787 43.5676 39.1849 43.2738 38.8224 43.2738Z" fill="#83CBEB" transform="matrix(1 0 0 1.01587 1445 1500)"/><path d="M39.4787 49.2647C39.4787 48.9022 39.1849 48.6084 38.8224 48.6084L24.3849 48.6084C24.0225 48.6084 23.7287 48.9022 23.7287 49.2647 23.7287 49.6271 24.0225 49.9209 24.3849 49.9209L38.8224 49.9209C39.1849 49.9209 39.4787 49.6271 39.4787 49.2647Z" fill="#83CBEB" transform="matrix(1 0 0 1.01587 1445 1500)"/><path d="M35.3062 54.5213C35.3353 54.16 35.0659 53.8436 34.7046 53.8146 34.6864 53.8132 34.6682 53.8124 34.65 53.8125L28.3802 53.8125C28.0177 53.8113 27.723 54.1041 27.7218 54.4666 27.7217 54.485 27.7224 54.5035 27.7239 54.5219 27.8893 56.6153 29.7205 58.1783 31.814 58.0129 33.6776 57.8657 35.1577 56.3855 35.3049 54.5219ZM31.5197 56.7112C30.4969 56.7023 29.5813 56.0753 29.2031 55.125L33.8369 55.125C33.4601 56.0764 32.5436 56.7039 31.5203 56.7112Z" fill="#83CBEB" transform="matrix(1 0 0 1.01587 1445 1500)"/></g></svg>