<svg width="73" height="73" xmlns="http://www.w3.org/2000/svg" xmlns:xlink="http://www.w3.org/1999/xlink" xml:space="preserve" overflow="hidden"><g transform="translate(-1635 -2974)"><path d="M1688.23 3015.06 1681.53 3015.06C1682.79 3012.88 1682.05 3010.09 1679.87 3008.83 1677.69 3007.56 1674.9 3008.31 1673.64 3010.49 1672.82 3011.9 1672.82 3013.65 1673.64 3015.06L1666.94 3015.06 1666.94 3007.71C1666.94 3007.29 1666.6 3006.95 1666.18 3006.95 1665.94 3006.95 1665.71 3007.06 1665.57 3007.25 1664.42 3008.78 1662.25 3009.09 1660.72 3007.95 1659.19 3006.8 1658.88 3004.63 1660.03 3003.1 1661.17 3001.57 1663.34 3001.26 1664.88 3002.4 1665.14 3002.6 1665.37 3002.83 1665.57 3003.1 1665.82 3003.43 1666.3 3003.5 1666.63 3003.25 1666.82 3003.1 1666.94 3002.88 1666.94 3002.64L1666.94 2994.53C1666.94 2994.11 1666.6 2993.77 1666.18 2993.77L1644.12 2993.77C1643.71 2993.77 1643.36 2994.11 1643.36 2994.53L1643.36 3037.11C1643.36 3037.53 1643.71 3037.88 1644.12 3037.88L1688.2 3037.88C1688.62 3037.88 1688.96 3037.53 1688.96 3037.11L1688.99 3015.82C1688.99 3015.4 1688.65 3015.06 1688.23 3015.06ZM1644.89 2995.29 1665.42 2995.29 1665.42 3000.94C1663.08 2999.49 1660 3000.21 1658.55 3002.55 1657.11 3004.89 1657.83 3007.96 1660.17 3009.41 1661.78 3010.41 1663.81 3010.41 1665.42 3009.41L1665.42 3015.06 1657.57 3015.06C1657.15 3015.06 1656.81 3015.4 1656.81 3015.82 1656.81 3016.06 1656.92 3016.29 1657.11 3016.43 1657.99 3017.06 1658.52 3018.08 1658.51 3019.17 1658.51 3021.1 1656.95 3022.67 1655.01 3022.67 1653.08 3022.67 1651.52 3021.1 1651.52 3019.17 1651.52 3018.08 1652.04 3017.06 1652.92 3016.43 1653.25 3016.18 1653.32 3015.7 1653.07 3015.37 1652.93 3015.18 1652.7 3015.06 1652.46 3015.06L1644.89 3015.06ZM1665.42 3036.35 1644.89 3036.35 1644.89 3016.58 1650.74 3016.58C1650.25 3017.36 1650 3018.25 1650 3019.17 1650 3021.94 1652.24 3024.19 1655.02 3024.19 1657.79 3024.19 1660.04 3021.94 1660.04 3019.17 1660.04 3018.25 1659.78 3017.36 1659.29 3016.58L1665.42 3016.58 1665.42 3023.86C1665.42 3024.28 1665.76 3024.62 1666.18 3024.62 1666.42 3024.62 1666.65 3024.51 1666.79 3024.31 1667.21 3023.73 1667.79 3023.3 1668.47 3023.08 1670.27 3022.43 1672.25 3023.36 1672.91 3025.15 1673.56 3026.95 1672.63 3028.94 1670.83 3029.59 1670.76 3029.62 1670.68 3029.64 1670.61 3029.66L1670.55 3029.69C1670.48 3029.71 1670.42 3029.73 1670.35 3029.76L1670.3 3029.79C1670.25 3029.79 1670.21 3029.8 1670.17 3029.81 1669.09 3030.09 1667.95 3029.79 1667.14 3029.03 1667.09 3028.99 1667.03 3028.92 1666.97 3028.86 1666.91 3028.81 1666.85 3028.75 1666.81 3028.71 1666.66 3028.5 1666.43 3028.38 1666.18 3028.38 1665.76 3028.38 1665.42 3028.72 1665.42 3029.14L1665.42 3036.35ZM1687.44 3036.35 1666.94 3036.35 1666.94 3030.77C1668.01 3031.4 1669.28 3031.59 1670.48 3031.3 1670.64 3031.28 1670.79 3031.23 1670.94 3031.17L1671.13 3031.09C1673.74 3030.23 1675.16 3027.41 1674.29 3024.8 1673.43 3022.18 1670.61 3020.77 1668 3021.63 1667.63 3021.75 1667.27 3021.92 1666.94 3022.12L1666.94 3016.58 1675.3 3016.58C1675.72 3016.58 1676.06 3016.24 1676.06 3015.82 1676.06 3015.58 1675.95 3015.36 1675.76 3015.21 1674.41 3014.21 1674.14 3012.3 1675.15 3010.96 1676.16 3009.61 1678.06 3009.34 1679.41 3010.35 1680.75 3011.36 1681.02 3013.26 1680.02 3014.61 1679.84 3014.84 1679.64 3015.04 1679.41 3015.21 1679.07 3015.47 1679 3015.94 1679.26 3016.28 1679.4 3016.47 1679.63 3016.58 1679.86 3016.58L1687.47 3016.58Z" fill="#CAEEFB"/><path d="M1699.87 2990.44C1699.79 2990.25 1699.64 2990.11 1699.46 2990.03L1681.02 2982.42C1680.64 2982.26 1680.19 2982.45 1680.03 2982.84 1680.03 2982.84 1680.03 2982.84 1680.03 2982.84L1677.74 2988.4C1676.2 2986.42 1673.34 2986.07 1671.36 2987.61 1669.38 2989.16 1669.03 2992.02 1670.57 2994 1671.1 2994.67 1671.79 2995.18 1672.59 2995.47 1673.28 2995.73 1674.03 2995.8 1674.76 2995.67L1672.44 3001.19C1672.27 3001.57 1672.45 3002.02 1672.84 3002.18 1672.84 3002.18 1672.85 3002.18 1672.85 3002.19L1679.48 3004.89C1679.87 3005.05 1680.31 3004.86 1680.47 3004.47 1680.56 3004.25 1680.54 3004 1680.42 3003.8 1679.91 3002.93 1679.88 3001.85 1680.35 3000.96 1681.06 2999.18 1683.08 2998.33 1684.86 2999.04 1686.63 2999.76 1687.49 3001.78 1686.77 3003.55 1686.76 3003.58 1686.75 3003.6 1686.74 3003.62 1686.45 3004.6 1685.69 3005.36 1684.71 3005.65 1684.3 3005.75 1684.05 3006.16 1684.15 3006.57 1684.21 3006.81 1684.38 3007 1684.61 3007.09L1691.28 3009.82C1691.67 3009.98 1692.11 3009.79 1692.27 3009.4 1692.27 3009.4 1692.27 3009.4 1692.27 3009.4L1699.87 2991.02C1699.95 2990.83 1699.95 2990.62 1699.87 2990.44ZM1691.16 3008.12 1686.7 3006.3C1687.34 3005.73 1687.84 3005.01 1688.14 3004.21 1689.13 3001.64 1687.85 2998.75 1685.29 2997.76 1682.72 2996.77 1679.83 2998.05 1678.84 3000.62 1678.57 3001.33 1678.46 3002.1 1678.53 3002.86L1674.14 3001.07 1676.86 2994.61C1677.02 2994.22 1676.84 2993.78 1676.46 2993.61 1676.22 2993.52 1675.96 2993.54 1675.75 2993.68 1674.98 2994.21 1674 2994.35 1673.12 2994.04 1671.54 2993.46 1670.74 2991.71 1671.32 2990.13 1671.9 2988.55 1673.65 2987.75 1675.23 2988.33 1676.14 2988.7 1676.83 2989.47 1677.1 2990.41 1677.22 2990.81 1677.64 2991.04 1678.05 2990.92 1678.27 2990.86 1678.45 2990.69 1678.53 2990.48L1681.15 2984.12 1698.18 2991.14Z" fill="#CAEEFB"/></g></svg>