<svg width="77" height="77" xmlns="http://www.w3.org/2000/svg" xmlns:xlink="http://www.w3.org/1999/xlink" xml:space="preserve" overflow="hidden"><g transform="translate(-1708 -568)"><path d="M1769.76 607.302C1773.75 607.308 1776.99 604.076 1777 600.083 1777.01 596.091 1773.77 592.849 1769.78 592.844 1765.79 592.838 1762.55 596.07 1762.54 600.063 1762.54 600.776 1762.65 601.486 1762.85 602.169L1754.67 605.655C1753.1 602.506 1750 600.408 1746.5 600.124L1746.5 591.213C1750.46 590.77 1753.31 587.199 1752.87 583.237 1752.43 579.275 1748.86 576.422 1744.9 576.865 1740.93 577.308 1738.08 580.879 1738.52 584.841 1738.9 588.193 1741.54 590.838 1744.9 591.213L1744.9 600.124C1741.39 600.409 1738.29 602.508 1736.73 605.655L1728.54 602.169C1729.71 598.339 1727.56 594.285 1723.73 593.115 1719.9 591.945 1715.84 594.102 1714.67 597.932 1713.5 601.762 1715.66 605.816 1719.49 606.986 1722.73 607.976 1726.23 606.587 1727.91 603.641L1736.12 607.142C1735.13 610.325 1735.79 613.791 1737.89 616.386L1731.29 622.983C1727.96 620.699 1723.41 621.547 1721.12 624.878 1718.84 628.209 1719.69 632.761 1723.02 635.046 1726.35 637.33 1730.9 636.481 1733.18 633.15 1735.12 630.327 1734.84 626.539 1732.51 624.033L1738.99 617.547C1742.79 621.002 1748.6 621.002 1752.4 617.547L1758.88 624.033C1756.2 626.927 1756.38 631.443 1759.27 634.121 1762.17 636.798 1766.68 636.623 1769.36 633.729 1772.04 630.836 1771.86 626.319 1768.97 623.641 1766.53 621.382 1762.85 621.109 1760.1 622.983L1753.5 616.386C1755.6 613.792 1756.26 610.326 1755.27 607.142L1763.49 603.644C1764.77 605.903 1767.16 607.3 1769.76 607.302ZM1718.45 604.699C1718.54 602.938 1720.05 601.589 1721.81 601.686 1723.44 601.776 1724.73 603.074 1724.82 604.699 1722.91 606.031 1720.36 606.031 1718.45 604.699ZM1720.43 598.88C1720.43 598.216 1720.97 597.677 1721.64 597.677 1722.3 597.677 1722.84 598.216 1722.84 598.88 1722.84 599.545 1722.3 600.083 1721.64 600.083 1720.97 600.083 1720.43 599.545 1720.43 598.88ZM1726.19 603.354C1725.79 602.17 1724.94 601.188 1723.83 600.615 1724.22 600.124 1724.44 599.512 1724.44 598.88 1724.44 597.33 1723.19 596.073 1721.64 596.073 1720.08 596.073 1718.83 597.33 1718.83 598.88 1718.83 599.512 1719.05 600.124 1719.45 600.615 1718.33 601.188 1717.49 602.17 1717.08 603.354 1715.27 600.839 1715.84 597.33 1718.35 595.516 1720.87 593.703 1724.38 594.272 1726.19 596.787 1727.6 598.748 1727.6 601.393 1726.19 603.354ZM1744.49 582.839C1744.49 582.174 1745.03 581.635 1745.7 581.635 1746.36 581.635 1746.9 582.174 1746.9 582.839 1746.9 583.503 1746.36 584.042 1745.7 584.042 1745.03 584.042 1744.49 583.503 1744.49 582.839ZM1745.7 585.646C1747.39 585.651 1748.79 586.969 1748.89 588.658 1746.97 589.989 1744.43 589.989 1742.51 588.658 1742.61 586.969 1744.01 585.651 1745.7 585.646ZM1740.08 584.042C1740.08 580.941 1742.58 578.421 1745.69 578.414 1748.79 578.407 1751.31 580.915 1751.31 584.016 1751.32 585.199 1750.94 586.353 1750.25 587.313 1749.85 586.128 1749 585.146 1747.89 584.573 1748.28 584.082 1748.5 583.47 1748.51 582.839 1748.51 581.288 1747.25 580.031 1745.7 580.031 1744.15 580.031 1742.89 581.288 1742.89 582.839 1742.89 583.47 1743.11 584.082 1743.51 584.573 1742.4 585.146 1741.55 586.128 1741.14 587.313 1740.45 586.361 1740.08 585.216 1740.08 584.042ZM1724.06 633.574C1724.16 631.813 1725.66 630.464 1727.43 630.561 1729.05 630.651 1730.35 631.949 1730.44 633.574 1728.52 634.906 1725.98 634.906 1724.06 633.574ZM1726.05 627.755C1726.05 627.091 1726.59 626.552 1727.25 626.552 1727.91 626.552 1728.45 627.091 1728.45 627.755 1728.45 628.42 1727.91 628.958 1727.25 628.958 1726.59 628.958 1726.05 628.42 1726.05 627.755ZM1731.8 632.229C1731.4 631.045 1730.55 630.063 1729.44 629.49 1729.84 628.999 1730.05 628.387 1730.06 627.755 1730.06 626.205 1728.8 624.948 1727.25 624.948 1725.7 624.948 1724.44 626.205 1724.44 627.755 1724.45 628.387 1724.66 628.999 1725.06 629.49 1723.95 630.063 1723.1 631.045 1722.7 632.229 1720.88 629.714 1721.45 626.205 1723.97 624.391 1726.48 622.578 1729.99 623.147 1731.8 625.662 1733.22 627.623 1733.22 630.268 1731.8 632.229ZM1740.85 616.982C1741.1 614.304 1743.48 612.338 1746.16 612.591 1748.48 612.811 1750.33 614.654 1750.55 616.982 1747.64 619.047 1743.75 619.047 1740.85 616.982ZM1743.47 608.731C1743.47 607.499 1744.47 606.5 1745.7 606.501 1746.93 606.501 1747.93 607.5 1747.93 608.732 1747.93 609.964 1746.93 610.962 1745.7 610.962 1744.47 610.961 1743.47 609.962 1743.47 608.731ZM1760.96 633.574C1761.05 631.813 1762.56 630.464 1764.32 630.561 1765.95 630.651 1767.24 631.949 1767.33 633.574 1765.42 634.906 1762.87 634.906 1760.96 633.574ZM1762.94 627.755C1762.94 627.091 1763.48 626.552 1764.15 626.552 1764.81 626.552 1765.35 627.091 1765.35 627.755 1765.35 628.42 1764.81 628.958 1764.15 628.958 1763.48 628.958 1762.94 628.42 1762.94 627.755ZM1769.76 628.958C1769.76 630.133 1769.39 631.278 1768.7 632.229 1768.3 631.045 1767.45 630.063 1766.34 629.49 1766.73 628.999 1766.95 628.387 1766.95 627.755 1766.95 626.205 1765.7 624.948 1764.15 624.948 1762.6 624.948 1761.34 626.205 1761.34 627.755 1761.34 628.387 1761.56 628.999 1761.96 629.49 1760.84 630.063 1760 631.045 1759.59 632.229 1757.78 629.714 1758.35 626.205 1760.86 624.391 1763.38 622.578 1766.89 623.147 1768.7 625.662 1769.39 626.622 1769.76 627.775 1769.76 628.958ZM1751.94 615.741C1751.43 613.86 1750.1 612.31 1748.31 611.519 1749.86 610.074 1749.95 607.647 1748.5 606.099 1747.06 604.55 1744.63 604.467 1743.08 605.911 1741.53 607.357 1741.45 609.783 1742.89 611.331 1742.95 611.396 1743.02 611.458 1743.08 611.519 1741.3 612.31 1739.97 613.86 1739.45 615.741 1736.33 612.292 1736.6 606.966 1740.05 603.845 1743.5 600.724 1748.82 600.99 1751.94 604.438 1754.85 607.646 1754.85 612.533 1751.94 615.741ZM1766.57 604.699C1766.67 602.938 1768.17 601.589 1769.94 601.686 1771.56 601.776 1772.86 603.074 1772.95 604.699 1771.03 606.031 1768.49 606.031 1766.57 604.699ZM1768.56 598.88C1768.56 598.216 1769.1 597.677 1769.76 597.677 1770.42 597.677 1770.96 598.216 1770.96 598.88 1770.96 599.545 1770.42 600.083 1769.76 600.083 1769.1 600.083 1768.56 599.545 1768.56 598.88ZM1769.76 594.469C1772.86 594.463 1775.37 596.969 1775.38 600.064 1775.38 601.245 1775.01 602.397 1774.31 603.354 1773.91 602.17 1773.06 601.188 1771.95 600.615 1772.35 600.124 1772.56 599.512 1772.57 598.88 1772.57 597.33 1771.31 596.073 1769.76 596.073 1768.21 596.073 1766.95 597.33 1766.95 598.88 1766.96 599.512 1767.17 600.124 1767.57 600.615 1766.46 601.188 1765.61 602.17 1765.21 603.354 1763.39 600.844 1763.96 597.341 1766.47 595.529 1767.43 594.838 1768.58 594.467 1769.76 594.469Z" fill="#CAEEFB"/></g></svg>