<svg width="72" height="72" xmlns="http://www.w3.org/2000/svg" xmlns:xlink="http://www.w3.org/1999/xlink" xml:space="preserve" overflow="hidden"><g transform="translate(-1428 -719)"><path d="M1496.71 748.775 1464 737.075 1431.3 748.775 1437.75 751.039 1437.75 764.075C1437.75 764.489 1438.09 764.825 1438.5 764.825 1438.91 764.825 1439.25 764.489 1439.25 764.075L1439.25 751.565 1444.53 753.417 1444.53 764.218C1444.53 768.612 1453.45 772.325 1464 772.325 1474.56 772.325 1483.48 768.612 1483.48 764.219L1483.48 753.417ZM1464 738.669 1492.2 748.755C1492.21 748.759 1492.21 748.765 1492.2 748.769L1464 758.661 1435.81 748.769C1435.8 748.765 1435.8 748.759 1435.81 748.755ZM1481.98 764.219C1481.98 767.274 1474.13 770.825 1464 770.825 1453.88 770.825 1446.03 767.274 1446.03 764.219L1446.03 753.944 1464 760.25 1481.98 753.943Z" fill="#CAEEFB"/></g></svg>