<svg width="64" height="64" xmlns="http://www.w3.org/2000/svg" xmlns:xlink="http://www.w3.org/1999/xlink" xml:space="preserve" overflow="hidden"><g transform="translate(-1581 -2126)"><path d="M1637.01 2136 1589 2136C1587.53 2136.01 1586.34 2137.2 1586.34 2138.67L1586.34 2170.68C1586.34 2172.15 1587.53 2173.34 1589 2173.35L1608.34 2173.35 1608.34 2180.01 1601 2180.01 1601 2181.35 1625 2181.35 1625 2180.01 1617.67 2180.01 1617.67 2173.35 1637.01 2173.35C1638.48 2173.34 1639.67 2172.15 1639.67 2170.68L1639.67 2138.67C1639.67 2137.2 1638.48 2136.01 1637.01 2136ZM1616.34 2180.01 1609.67 2180.01 1609.67 2173.35 1616.34 2173.35ZM1638.34 2170.68C1638.34 2171.42 1637.74 2172.01 1637.01 2172.01L1589 2172.01C1588.27 2172.01 1587.67 2171.42 1587.67 2170.68L1587.67 2138.67C1587.67 2137.93 1588.27 2137.34 1589 2137.34L1637.01 2137.34C1637.74 2137.34 1638.34 2137.93 1638.34 2138.67Z" fill="#CAEEFB"/><path d="M1591 2139.34 1589.67 2139.34 1589.67 2170.01 1636.34 2170.01 1636.34 2139.34 1591 2139.34ZM1608.34 2140.67 1608.34 2154 1605.17 2154 1605.17 2151.87C1605.18 2151.28 1604.9 2150.73 1604.43 2150.38 1603.67 2149.79 1602.78 2149.36 1601.85 2149.14 1601.15 2148.94 1600.42 2148.82 1599.69 2148.8 1598.96 2148.8 1598.24 2148.91 1597.55 2149.14 1596.61 2149.4 1595.72 2149.82 1594.93 2150.4 1594.48 2150.75 1594.21 2151.3 1594.21 2151.87L1594.21 2154 1591 2154 1591 2140.67ZM1603.84 2154 1595.54 2154 1595.54 2151.87C1595.54 2151.71 1595.61 2151.56 1595.74 2151.46 1596.4 2150.98 1597.14 2150.63 1597.92 2150.42 1598.49 2150.23 1599.09 2150.14 1599.69 2150.13 1600.31 2150.15 1600.92 2150.26 1601.51 2150.43 1602.27 2150.61 1602.98 2150.94 1603.6 2151.42L1603.65 2151.47C1603.78 2151.56 1603.85 2151.72 1603.84 2151.87ZM1591 2155.33 1608.34 2155.33 1608.34 2168.68 1605.17 2168.68 1605.17 2166.54C1605.18 2165.95 1604.9 2165.39 1604.43 2165.04 1603.67 2164.45 1602.78 2164.03 1601.85 2163.81 1601.15 2163.6 1600.42 2163.49 1599.69 2163.47 1598.96 2163.47 1598.24 2163.58 1597.55 2163.81 1596.61 2164.06 1595.72 2164.49 1594.93 2165.07 1594.48 2165.42 1594.21 2165.96 1594.21 2166.54L1594.21 2168.68 1591 2168.68ZM1603.84 2168.68 1595.54 2168.68 1595.54 2166.54C1595.54 2166.38 1595.61 2166.23 1595.74 2166.13 1596.4 2165.65 1597.14 2165.3 1597.92 2165.09 1598.49 2164.9 1599.09 2164.8 1599.69 2164.8 1600.31 2164.82 1600.92 2164.92 1601.51 2165.1 1602.27 2165.27 1602.98 2165.61 1603.6 2166.09L1603.65 2166.13C1603.78 2166.23 1603.85 2166.38 1603.84 2166.54ZM1635.01 2168.68 1609.67 2168.68 1609.67 2140.67 1635.01 2140.67Z" fill="#CAEEFB"/><path d="M1630.62 2163.33 1630.62 2159.3C1630.63 2158.49 1630.25 2157.72 1629.59 2157.25 1628.42 2156.34 1627.08 2155.7 1625.64 2155.36 1624.57 2155.04 1623.45 2154.86 1622.33 2154.83 1621.21 2154.83 1620.1 2155.01 1619.04 2155.36 1617.61 2155.75 1616.25 2156.4 1615.05 2157.27 1614.42 2157.76 1614.05 2158.51 1614.05 2159.3L1614.05 2163.33ZM1615.38 2159.3C1615.38 2158.92 1615.56 2158.56 1615.86 2158.33 1616.93 2157.56 1618.14 2156.98 1619.41 2156.64 1620.36 2156.33 1621.34 2156.17 1622.33 2156.16 1623.34 2156.2 1624.34 2156.36 1625.3 2156.65 1626.56 2156.94 1627.74 2157.5 1628.76 2158.29L1628.82 2158.34C1629.12 2158.56 1629.3 2158.92 1629.28 2159.3L1629.28 2162 1615.38 2162Z" fill="#CAEEFB"/><path d="M1622.33 2154.07C1624.56 2154.07 1626.37 2152.26 1626.37 2150.03 1626.37 2147.81 1624.56 2146 1622.33 2146 1620.11 2146 1618.3 2147.8 1618.3 2150.03 1618.3 2150.03 1618.3 2150.03 1618.3 2150.03 1618.3 2152.26 1620.11 2154.07 1622.33 2154.07ZM1622.33 2147.33C1623.82 2147.33 1625.03 2148.54 1625.04 2150.03 1625.04 2151.52 1623.83 2152.73 1622.33 2152.73 1620.84 2152.74 1619.63 2151.53 1619.63 2150.03 1619.63 2150.03 1619.63 2150.03 1619.63 2150.03 1619.63 2148.54 1620.84 2147.33 1622.33 2147.33Z" fill="#CAEEFB"/><path d="M1599.69 2162.82C1601.21 2162.82 1602.43 2161.59 1602.43 2160.08 1602.43 2158.56 1601.21 2157.33 1599.69 2157.33 1598.18 2157.33 1596.95 2158.56 1596.95 2160.08 1596.95 2160.08 1596.95 2160.08 1596.95 2160.08 1596.95 2161.59 1598.18 2162.82 1599.69 2162.82 1599.69 2162.82 1599.69 2162.82 1599.69 2162.82ZM1599.69 2158.67C1600.47 2158.67 1601.1 2159.3 1601.1 2160.08 1601.1 2160.85 1600.47 2161.49 1599.69 2161.49 1598.91 2161.49 1598.28 2160.86 1598.28 2160.08 1598.28 2160.08 1598.28 2160.08 1598.28 2160.08 1598.28 2159.3 1598.91 2158.67 1599.69 2158.67Z" fill="#CAEEFB"/><path d="M1599.69 2148.15C1601.21 2148.15 1602.43 2146.93 1602.43 2145.41 1602.43 2143.89 1601.21 2142.67 1599.69 2142.67 1598.18 2142.67 1596.95 2143.89 1596.95 2145.41 1596.95 2145.41 1596.95 2145.41 1596.95 2145.41 1596.95 2146.92 1598.18 2148.15 1599.69 2148.15 1599.69 2148.15 1599.69 2148.15 1599.69 2148.15ZM1599.69 2144C1600.47 2144 1601.1 2144.63 1601.1 2145.41 1601.1 2146.19 1600.47 2146.82 1599.69 2146.82 1598.91 2146.82 1598.28 2146.19 1598.28 2145.41 1598.28 2145.41 1598.28 2145.41 1598.28 2145.41 1598.28 2144.63 1598.91 2144 1599.69 2144Z" fill="#CAEEFB"/></g></svg>