<svg width="64" height="64" xmlns="http://www.w3.org/2000/svg" xmlns:xlink="http://www.w3.org/1999/xlink" xml:space="preserve" overflow="hidden"><g transform="translate(-1663 -1491)"><path d="M1667.43 1510.33C1667.06 1511.65 1666.14 1512.74 1664.9 1513.33 1666.14 1513.92 1667.06 1515.02 1667.43 1516.33 1667.81 1515.02 1668.73 1513.92 1669.97 1513.33 1668.73 1512.74 1667.81 1511.65 1667.43 1510.33ZM1667.43 1513.61C1667.35 1513.52 1667.27 1513.42 1667.18 1513.33 1667.27 1513.24 1667.35 1513.15 1667.43 1513.05 1667.52 1513.15 1667.6 1513.24 1667.69 1513.33 1667.6 1513.42 1667.52 1513.52 1667.43 1513.61Z" fill="#83CBEB"/><path d="M1722.85 1513.67C1722.4 1515.28 1721.27 1516.61 1719.76 1517.33 1721.27 1518.05 1722.4 1519.39 1722.85 1521 1723.31 1519.39 1724.44 1518.05 1725.95 1517.33 1724.44 1516.61 1723.31 1515.28 1722.85 1513.67ZM1722.85 1518.14C1722.63 1517.85 1722.39 1517.58 1722.12 1517.33 1722.39 1517.08 1722.63 1516.81 1722.85 1516.52 1723.08 1516.81 1723.32 1517.08 1723.59 1517.33 1723.32 1517.58 1723.08 1517.85 1722.85 1518.14Z" fill="#83CBEB"/><path d="M1699.92 1513C1700.25 1511.83 1701.07 1510.86 1702.17 1510.33 1701.07 1509.81 1700.25 1508.84 1699.92 1507.67 1699.59 1508.84 1698.77 1509.81 1697.67 1510.33 1698.77 1510.86 1699.59 1511.83 1699.92 1513Z" fill="#83CBEB"/><path d="M1685.52 1499C1685.94 1497.54 1686.96 1496.32 1688.34 1495.67 1686.96 1495.01 1685.94 1493.8 1685.52 1492.33 1685.11 1493.8 1684.08 1495.01 1682.71 1495.67 1684.08 1496.32 1685.11 1497.54 1685.52 1499ZM1685.52 1495.13C1685.67 1495.32 1685.84 1495.5 1686.01 1495.67 1685.84 1495.84 1685.67 1496.02 1685.52 1496.21 1685.37 1496.02 1685.2 1495.84 1685.03 1495.67 1685.2 1495.5 1685.37 1495.32 1685.52 1495.13Z" fill="#83CBEB"/><path d="M1719.62 1506.86 1719.67 1506.74 1719.67 1504.66 1719.01 1503.02C1718.2 1500.99 1716.24 1499.67 1714.06 1499.67L1675.95 1499.67C1673.77 1499.67 1671.81 1500.99 1671 1503.02L1670.34 1504.67 1670.34 1506.47 1670.5 1506.86 1674.33 1515.78 1669.67 1524.84 1669.67 1546.33 1720.34 1546.33 1720.34 1524.84 1715.74 1515.9ZM1672.23 1503.51C1672.84 1501.99 1674.31 1500.99 1675.95 1501L1714.06 1501C1715.7 1500.99 1717.17 1501.99 1717.77 1503.51L1718.37 1505 1671.64 1505ZM1671.73 1506.33 1718.39 1506.33 1714.39 1515.67 1706.66 1515.67C1705.76 1515.15 1704.8 1514.74 1703.8 1514.46 1702.81 1514.17 1700.89 1513.71 1699.59 1514.04 1698.35 1513.51 1696.34 1513.7 1695.3 1513.86 1694.75 1513.94 1694.2 1514.05 1693.66 1514.19L1693.04 1513.1C1692.08 1511.39 1688.89 1512.96 1687.56 1513.71 1686.47 1514.29 1685.48 1515.06 1684.65 1515.98 1683.38 1515.53 1681.06 1514.9 1679.93 1515.67L1675.73 1515.67ZM1710.97 1520.51C1713.06 1520.33 1714.77 1520.63 1714.83 1521.21 1714.89 1521.81 1713.16 1522.47 1710.97 1522.69 1710.58 1522.73 1710.2 1522.75 1709.84 1522.76 1710.57 1522.07 1711.11 1521.28 1710.97 1520.51ZM1714.98 1522.7 1715.01 1523.01C1715.06 1523.5 1713.91 1524.03 1712.29 1524.33L1707.78 1524.33C1707.75 1524.33 1707.72 1524.32 1707.7 1524.31 1707.94 1524.17 1708.21 1524 1708.5 1523.8 1709.36 1523.87 1710.23 1523.86 1711.08 1523.77 1712.44 1523.68 1713.77 1523.32 1714.98 1522.7ZM1706.94 1523.49C1706.37 1523.82 1705.77 1524.1 1705.16 1524.33L1702.83 1524.33 1702.78 1524.23C1704.13 1524.04 1705.42 1523.58 1706.58 1522.86 1707.79 1522.23 1708.86 1521.36 1709.71 1520.31L1709.87 1520.58C1710.17 1521.11 1708.85 1522.41 1706.94 1523.49ZM1682.66 1524.05C1682.27 1524.17 1681.88 1524.26 1681.47 1524.33L1676.96 1524.33C1676.55 1524.21 1676.3 1524.03 1676.28 1523.81L1676.24 1523.5C1677.56 1523.86 1678.93 1523.96 1680.28 1523.77 1681.11 1523.69 1681.93 1523.54 1682.74 1523.31 1682.65 1523.55 1682.63 1523.8 1682.66 1524.05ZM1680.17 1522.69C1677.98 1522.91 1676.15 1522.61 1676.09 1522.01 1676.03 1521.42 1677.76 1520.75 1679.95 1520.53 1680 1520.53 1680.04 1520.52 1680.08 1520.52 1680.93 1521.07 1681.83 1521.51 1682.77 1521.85 1682.9 1521.89 1683.04 1521.94 1683.19 1521.99 1682.22 1522.37 1681.2 1522.61 1680.17 1522.69ZM1683.15 1520.83C1681.08 1520.07 1679.57 1519 1679.78 1518.43L1679.89 1518.14C1680.91 1519.04 1682.1 1519.72 1683.4 1520.15 1684.01 1520.37 1684.64 1520.56 1685.28 1520.7 1685.03 1520.86 1684.77 1521.05 1684.51 1521.24 1684.05 1521.13 1683.59 1520.99 1683.15 1520.83ZM1684.22 1518.1 1685.02 1519.52C1684.62 1519.41 1684.2 1519.28 1683.77 1519.12 1681.71 1518.37 1680.2 1517.3 1680.4 1516.73 1680.6 1516.21 1682.21 1516.31 1684.11 1516.94 1683.98 1517.32 1684.02 1517.75 1684.22 1518.1ZM1691.94 1518.38 1691.89 1518.06C1693.22 1518.37 1694.6 1518.4 1695.93 1518.16 1697.29 1518.01 1698.6 1517.58 1699.78 1516.9L1699.82 1517.22C1699.91 1517.81 1698.22 1518.55 1696.04 1518.87 1693.86 1519.19 1692.03 1518.97 1691.94 1518.38ZM1696.1 1521.57C1696.03 1522.17 1694.19 1522.42 1692.01 1522.14 1689.83 1521.86 1688.12 1521.15 1688.2 1520.56 1688.27 1519.96 1690.11 1519.71 1692.29 1519.99 1694.47 1520.27 1696.18 1520.98 1696.1 1521.57ZM1695.78 1517.08C1693.6 1517.4 1691.76 1517.18 1691.68 1516.59 1691.59 1515.99 1693.28 1515.25 1695.46 1514.93 1697.64 1514.61 1699.47 1514.83 1699.56 1515.42 1699.65 1516.02 1697.95 1516.76 1695.78 1517.08ZM1689.17 1516.55C1687.25 1517.63 1685.46 1518.09 1685.16 1517.56 1684.87 1517.04 1686.18 1515.74 1688.1 1514.65 1690.01 1513.57 1691.8 1513.11 1692.1 1513.64 1692.39 1514.16 1691.08 1515.46 1689.17 1516.55ZM1686.71 1521.1C1686.82 1521.04 1686.94 1520.98 1687.05 1520.92L1686.89 1522.21C1686.84 1522.6 1686.95 1523 1687.2 1523.3 1685.51 1524.16 1684.04 1524.48 1683.77 1524.01 1683.48 1523.49 1684.79 1522.19 1686.71 1521.1ZM1686.06 1519.14 1685.9 1518.86C1687.25 1518.67 1688.54 1518.2 1689.7 1517.49 1689.96 1517.35 1690.28 1517.15 1690.63 1516.93L1690.74 1517.7C1690.52 1517.84 1690.3 1517.99 1690.06 1518.12 1688.14 1519.21 1686.35 1519.66 1686.06 1519.14ZM1688.01 1522.04C1689.2 1522.69 1690.52 1523.09 1691.87 1523.22 1693.22 1523.44 1694.59 1523.38 1695.91 1523.05L1695.87 1523.37C1695.79 1523.96 1693.96 1524.22 1691.78 1523.94 1689.6 1523.66 1687.89 1522.95 1687.97 1522.35ZM1691.67 1525.67 1698.34 1525.67 1698.34 1532.33C1698.34 1534.17 1696.85 1535.67 1695 1535.67 1693.16 1535.67 1691.67 1534.17 1691.67 1532.33ZM1698.06 1523.5C1697.68 1523.45 1697.32 1523.39 1696.97 1523.31L1697.07 1522.6C1697.47 1522.68 1697.85 1522.74 1698.15 1522.78 1699.5 1523 1700.87 1522.94 1702.19 1522.61L1702.15 1522.93C1702.08 1523.52 1700.24 1523.78 1698.06 1523.5ZM1698.29 1521.7C1697.9 1521.65 1697.53 1521.59 1697.18 1521.51 1697.12 1520.83 1696.7 1520.24 1696.08 1519.96 1696.12 1519.96 1696.16 1519.95 1696.2 1519.95 1696.89 1519.85 1697.56 1519.7 1698.23 1519.51 1698.34 1519.52 1698.45 1519.53 1698.57 1519.54 1700.75 1519.82 1702.46 1520.54 1702.38 1521.13 1702.31 1521.73 1700.47 1521.98 1698.29 1521.7ZM1702.37 1519.33C1701.65 1519.12 1700.95 1518.85 1700.27 1518.51 1700.46 1518.36 1700.61 1518.17 1700.73 1517.96 1701.33 1518.22 1701.95 1518.45 1702.58 1518.63 1703.87 1519.06 1705.24 1519.22 1706.59 1519.1L1706.5 1519.41C1706.33 1519.98 1704.48 1519.95 1702.37 1519.33ZM1700.57 1515.02C1701.56 1515.04 1702.55 1515.21 1703.5 1515.5 1705.61 1516.12 1707.18 1517.09 1707.01 1517.67 1706.84 1518.25 1704.99 1518.21 1702.88 1517.59 1702.19 1517.39 1701.51 1517.13 1700.86 1516.81L1700.63 1515.27C1700.62 1515.18 1700.6 1515.1 1700.57 1515.02ZM1706.05 1521.92C1705.17 1522.44 1704.22 1522.83 1703.23 1523.08L1703.23 1523.07 1703.46 1521.27C1703.47 1521.19 1703.47 1521.1 1703.46 1521.02 1703.57 1520.94 1703.68 1520.85 1703.8 1520.77 1705.35 1521.04 1707.16 1521.03 1707.54 1519.71L1707.79 1518.87C1708.41 1518.74 1708.84 1518.77 1708.98 1519.01 1709.27 1519.53 1707.96 1520.83 1706.05 1521.92ZM1675.2 1517 1679.15 1517 1678.76 1518.06C1678.58 1518.57 1678.69 1519.14 1679.04 1519.55 1677.35 1519.81 1674.85 1520.46 1675.01 1522.12L1675.2 1523.92C1675.21 1524.06 1675.25 1524.2 1675.31 1524.33L1671.43 1524.33ZM1671 1545 1671 1539.03C1674.16 1539.36 1676.65 1541.85 1676.97 1545ZM1719 1545 1713.04 1545C1713.36 1541.85 1715.85 1539.36 1719 1539.03ZM1719 1537.7C1715.12 1538.03 1712.03 1541.11 1711.7 1545L1678.3 1545C1677.97 1541.11 1674.89 1538.03 1671 1537.7L1671 1525.67 1690.34 1525.67 1690.34 1532.33C1690.34 1534.91 1692.43 1537 1695 1537 1697.58 1537 1699.67 1534.91 1699.67 1532.33L1699.67 1525.67 1719 1525.67ZM1718.58 1524.33 1715.38 1524.33C1715.86 1524.02 1716.13 1523.47 1716.09 1522.9L1715.91 1521.1C1715.71 1519.15 1712.16 1519.3 1710.65 1519.45 1710.6 1519.45 1710.54 1519.46 1710.49 1519.47L1709.92 1518.47C1709.53 1517.87 1708.8 1517.57 1708.1 1517.73 1708.13 1517.47 1708.08 1517.2 1707.97 1516.97L1708.04 1517 1714.81 1517Z" fill="#83CBEB"/><path d="M1695 1533.67C1696.11 1533.67 1697 1532.77 1697 1531.67 1697 1530.56 1696.11 1529.67 1695 1529.67 1693.9 1529.67 1693 1530.56 1693 1531.67 1693 1532.77 1693.9 1533.67 1695 1533.67ZM1695 1531C1695.37 1531 1695.67 1531.3 1695.67 1531.67 1695.67 1532.03 1695.37 1532.33 1695 1532.33 1694.64 1532.33 1694.34 1532.03 1694.34 1531.67 1694.34 1531.3 1694.64 1531 1695 1531Z" fill="#83CBEB"/></g></svg>