<svg width="68" height="68" xmlns="http://www.w3.org/2000/svg" xmlns:xlink="http://www.w3.org/1999/xlink" xml:space="preserve" overflow="hidden"><g transform="translate(-1742 -2274)"><path d="M1792.3 2329.25 1750.5 2329.25C1748.94 2329.25 1747.67 2327.98 1747.67 2326.42 1747.67 2324.85 1748.94 2323.58 1750.5 2323.58L1756.17 2323.58 1756.17 2293.83 1791.16 2293.83 1792.58 2292.42 1756.17 2292.42 1756.17 2285.33 1750.5 2285.33C1748.16 2285.34 1746.26 2287.24 1746.25 2289.58L1746.25 2326.42C1746.26 2328.76 1748.16 2330.66 1750.5 2330.67L1793.71 2330.67 1793.71 2306.22 1792.3 2307.63ZM1747.67 2289.58C1747.67 2288.02 1748.94 2286.75 1750.5 2286.75L1754.75 2286.75 1754.75 2322.17 1750.5 2322.17C1749.46 2322.17 1748.45 2322.55 1747.67 2323.25Z" fill="#CAEEFB"/><path d="M1808.17 2286.76 1805.69 2284.28C1805.15 2283.74 1804.27 2283.73 1803.72 2284.26 1803.71 2284.27 1803.7 2284.28 1803.7 2284.28L1785.61 2302.4 1785.52 2302.63 1783.98 2307.39 1774.47 2298.33 1760.85 2311.24 1763.99 2314.38 1763.99 2323.58 1773.2 2323.58 1773.2 2315.47 1775.68 2315.47 1775.68 2323.58 1784.89 2323.58 1784.89 2312.92 1774.44 2302.99 1764.27 2312.65 1762.88 2311.27 1774.47 2300.28 1783.58 2308.97 1789.82 2306.94 1790.11 2306.81 1808.13 2288.72C1808.68 2288.24 1808.74 2287.4 1808.25 2286.85 1808.23 2286.82 1808.2 2286.79 1808.17 2286.76ZM1765.41 2313.52 1774.44 2304.95 1783.47 2313.52 1783.47 2322.17 1777.09 2322.17 1777.09 2314.05 1771.78 2314.05 1771.78 2322.17 1765.41 2322.17ZM1789.6 2305.32 1789.35 2305.57 1786.39 2306.55 1785.91 2306.07 1786.88 2303.14 1787.17 2302.85C1787.46 2302.68 1787.78 2302.58 1788.12 2302.58 1788.59 2302.58 1789.05 2302.77 1789.38 2303.11 1789.98 2303.7 1790.08 2304.63 1789.6 2305.32ZM1803.73 2291.19 1791.24 2303.68C1790.97 2302.45 1790.01 2301.5 1788.78 2301.24L1801.28 2288.71 1801.51 2288.47 1803.97 2290.93ZM1804.95 2289.9 1802.51 2287.47 1804.69 2285.29 1807.12 2287.73Z" fill="#CAEEFB"/></g></svg>